# 3ds Max Wavefront OBJ Exporter v0.97b - (c)2007 guruware
# File Created: 10.08.2016 19:23:35

mtllib SM_Halfpipe_BG.mtl

#
# object Cylinder001
#

v  0.0000 2.1119 -50.0000
v  20.0000 7.4708 -50.0000
v  20.0000 7.4708 -30.0000
v  0.0000 2.1118 -30.0000
v  34.6410 20.4913 -50.0000
v  34.6410 20.4913 -30.0000
v  41.5086 40.4913 -50.0000
v  41.5086 40.4913 -30.0000
v  20.0000 7.4708 -10.0000
v  0.0000 2.1118 -10.0000
v  34.6410 20.4913 -10.0000
v  41.5086 40.4913 -10.0000
v  20.0000 7.4708 10.0000
v  0.0000 2.1118 10.0000
v  34.6410 20.4913 10.0000
v  41.5086 40.4913 10.0000
v  20.0000 7.4708 30.0000
v  0.0000 2.1118 30.0000
v  34.6410 20.4913 30.0000
v  41.5086 40.4913 30.0000
v  20.0000 7.4708 50.0000
v  0.0000 2.1118 50.0000
v  34.6410 20.4913 50.0000
v  41.5086 40.4913 50.0000
v  29.2616 23.5971 -50.0000
v  39.4397 40.4913 -50.0000
v  16.8942 12.8503 -50.0000
v  0.0000 8.3235 -50.0000
v  16.8942 12.8503 50.0000
v  0.0000 8.3235 50.0000
v  29.2616 23.5971 50.0000
v  39.4397 40.4913 50.0000
v  39.4397 40.4913 -30.0000
v  39.4397 40.4913 -10.0000
v  39.4397 40.4913 10.0000
v  39.4397 40.4913 30.0000
v  -20.0000 7.4708 -30.0000
v  -20.0000 7.4708 -50.0000
v  -34.6410 20.4913 -30.0000
v  -34.6410 20.4913 -50.0000
v  -41.5086 40.4913 -50.0000
v  -41.5086 40.4913 -30.0000
v  -20.0000 7.4708 -10.0000
v  -34.6410 20.4913 -10.0000
v  -41.5086 40.4913 -10.0000
v  -20.0000 7.4708 10.0000
v  -34.6410 20.4913 10.0000
v  -41.5086 40.4913 10.0000
v  -20.0000 7.4708 30.0000
v  -34.6410 20.4913 30.0000
v  -41.5086 40.4913 30.0000
v  -20.0000 7.4708 50.0000
v  -34.6410 20.4913 50.0000
v  -41.5086 40.4913 50.0000
v  -29.2616 23.5971 -50.0000
v  -39.4397 40.4913 -50.0000
v  -16.8942 12.8503 -50.0000
v  -16.8942 12.8503 50.0000
v  -29.2616 23.5971 50.0000
v  -39.4397 40.4913 50.0000
v  -39.4397 40.4913 -30.0000
v  -39.4397 40.4913 -10.0000
v  -39.4397 40.4913 10.0000
v  -39.4397 40.4913 30.0000
v  19.5765 0.0000 -26.8506
v  14.5290 0.0000 -26.8506
v  14.5290 0.0000 -31.8506
v  19.5765 0.0000 -31.8506
v  20.4044 9.4639 -26.8506
v  20.4044 9.4639 -31.8506
v  15.4235 9.8996 -31.8506
v  15.4235 9.8996 -26.8506
v  14.5955 0.4358 -31.8506
v  14.5955 0.4358 -26.8506
v  19.5765 0.0000 32.4385
v  14.5290 0.0000 32.4385
v  14.5290 0.0000 27.4385
v  19.5765 0.0000 27.4385
v  20.4044 9.4639 32.4385
v  20.4044 9.4639 27.4385
v  15.4235 9.8996 27.4385
v  15.4235 9.8996 32.4385
v  14.5955 0.4358 27.4385
v  14.5955 0.4358 32.4385
v  -19.0666 0.0000 -31.8506
v  -14.0191 0.0000 -31.8506
v  -14.0191 0.0000 -26.8506
v  -19.0666 0.0000 -26.8506
v  -19.8945 9.4639 -31.8506
v  -19.8946 9.4639 -26.8506
v  -14.9136 9.8996 -26.8506
v  -14.9136 9.8996 -31.8506
v  -14.0856 0.4358 -26.8506
v  -14.0856 0.4358 -31.8506
v  -19.0666 0.0000 27.4385
v  -14.0191 0.0000 27.4385
v  -14.0191 0.0000 32.4385
v  -19.0666 0.0000 32.4385
v  -19.8945 9.4638 27.4385
v  -19.8945 9.4638 32.4385
v  -14.9136 9.8996 32.4385
v  -14.9136 9.8996 27.4385
v  -14.0856 0.4358 32.4385
v  -14.0856 0.4358 27.4385
# 104 vertices

vn 0.2588 -0.9659 -0.0000
vn 0.6645 -0.7473 -0.0000
vn 0.9458 -0.3248 -0.0000
vn 0.2588 -0.9659 0.0000
vn 0.6645 -0.7473 0.0000
vn 0.0000 0.0000 -1.0000
vn 0.0000 0.0000 1.0000
vn -0.0000 -0.0000 1.0000
vn -0.7656 0.6433 0.0000
vn -0.6559 0.7548 0.0000
vn -0.2588 0.9659 0.0000
vn -0.8566 0.5160 0.0000
vn 0.0000 1.0000 0.0000
vn -0.2588 -0.9659 -0.0000
vn -0.6645 -0.7473 -0.0000
vn -0.9458 -0.3248 -0.0000
vn -0.2588 -0.9659 0.0000
vn -0.6645 -0.7473 0.0000
vn -0.0000 0.0000 -1.0000
vn 0.0000 -0.0000 1.0000
vn 0.7656 0.6433 0.0000
vn 0.6559 0.7548 0.0000
vn 0.2588 0.9659 0.0000
vn 0.8566 0.5160 0.0000
vn 0.0000 -1.0000 -0.0000
vn 0.0872 0.9962 -0.0000
vn 0.9962 -0.0872 -0.0000
vn -0.9962 0.0872 -0.0000
vn -0.9886 0.1509 -0.0000
vn -0.0872 0.9962 -0.0000
vn -0.9962 -0.0872 -0.0000
vn -0.0000 0.0000 1.0000
vn 0.9962 0.0872 0.0000
vn 0.0000 -0.0000 -1.0000
vn 0.9886 0.1509 0.0000
# 35 vertex normals

vt 0.5000 0.0000 1.0000
vt 0.5833 0.0000 1.0000
vt 0.5833 0.2000 1.0000
vt 0.5000 0.2000 1.0000
vt 0.6667 0.0000 1.0000
vt 0.6667 0.2000 1.0000
vt 0.7083 0.0000 1.0000
vt 0.7083 0.2000 1.0000
vt 0.5833 0.4000 1.0000
vt 0.5000 0.4000 1.0000
vt 0.6667 0.4000 1.0000
vt 0.7083 0.4000 1.0000
vt 0.5833 0.6000 1.0000
vt 0.5000 0.6000 1.0000
vt 0.6667 0.6000 1.0000
vt 0.7083 0.6000 1.0000
vt 0.5833 0.8000 1.0000
vt 0.5000 0.8000 1.0000
vt 0.6667 0.8000 1.0000
vt 0.7083 0.8000 1.0000
vt 0.5833 1.0000 1.0000
vt 0.5000 1.0000 1.0000
vt 0.6667 1.0000 1.0000
vt 0.7083 1.0000 1.0000
vt 0.7500 0.9330 -0.2500
vt 0.5000 1.0000 -0.2500
vt 0.6250 0.9665 -0.2500
vt 0.9330 0.7500 -0.2500
vt 1.0000 0.5000 -0.2500
vt 1.0000 0.5000 0.2500
vt 0.9330 0.7500 0.2500
vt 0.7500 0.9330 0.2500
vt 0.6250 0.9665 0.2500
vt 0.5000 1.0000 0.2500
vt 0.7500 0.0000 1.0000
vt 0.7500 0.2000 1.0000
vt 0.7500 0.4000 1.0000
vt 0.7500 0.6000 1.0000
vt 0.7500 0.8000 1.0000
vt 0.7500 1.0000 1.0000
vt 1.0000 0.0000 0.0000
vt 1.0000 1.0000 0.0000
vt 0.0000 1.0000 0.0000
vt 0.0000 0.0000 0.0000
# 44 texture coords

g Cylinder001
usemtl 01___Default
s off
f 1/1/1 2/2/1 3/3/1 
f 3/3/1 4/4/1 1/1/1 
f 2/2/2 5/5/2 6/6/2 
f 6/6/2 3/3/2 2/2/2 
f 7/7/3 8/8/3 6/6/3 
f 6/6/3 5/5/3 7/7/3 
f 4/4/1 3/3/1 9/9/1 
f 9/9/1 10/10/1 4/4/1 
f 3/3/2 6/6/2 11/11/2 
f 11/11/2 9/9/2 3/3/2 
f 8/8/3 12/12/3 11/11/3 
f 11/11/3 6/6/3 8/8/3 
f 10/10/1 9/9/1 13/13/1 
f 13/13/1 14/14/1 10/10/1 
f 9/9/2 11/11/2 15/15/2 
f 15/15/2 13/13/2 9/9/2 
f 12/12/3 16/16/3 15/15/3 
f 15/15/3 11/11/3 12/12/3 
f 14/14/4 13/13/4 17/17/4 
f 17/17/4 18/18/4 14/14/4 
f 13/13/2 15/15/2 19/19/2 
f 19/19/5 17/17/5 13/13/5 
f 16/16/3 20/20/3 19/19/3 
f 19/19/3 15/15/3 16/16/3 
f 18/18/1 17/17/1 21/21/1 
f 21/21/1 22/22/1 18/18/1 
f 17/17/2 19/19/2 23/23/2 
f 23/23/2 21/21/2 17/17/2 
f 20/20/3 24/24/3 23/23/3 
f 23/23/3 19/19/3 20/20/3 
f 25/25/6 26/26/6 7/27/6 
f 7/27/6 5/25/6 25/25/6 
f 5/25/6 2/28/6 27/28/6 
f 27/28/6 25/25/6 5/25/6 
f 2/28/6 1/29/6 28/29/6 
f 28/29/6 27/28/6 2/28/6 
f 22/30/7 21/31/7 29/31/7 
f 29/31/7 30/30/7 22/30/7 
f 21/31/8 23/32/8 31/32/8 
f 31/32/8 29/31/8 21/31/8 
f 31/32/7 23/32/7 24/33/7 
f 24/33/7 32/34/7 31/32/7 
s 1
f 25/25/9 27/28/10 29/31/10 
f 29/31/10 31/32/9 25/25/9 
s 2
f 27/28/11 28/29/11 30/30/11 
f 30/30/11 29/31/11 27/28/11 
s 1
f 26/26/12 25/25/9 31/32/9 
f 31/32/9 32/34/12 26/26/12 
s off
f 26/35/13 33/36/13 8/8/13 
f 8/8/13 7/7/13 26/35/13 
f 33/36/13 34/37/13 12/12/13 
f 12/12/13 8/8/13 33/36/13 
f 34/37/13 35/38/13 16/16/13 
f 16/16/13 12/12/13 34/37/13 
f 35/38/13 36/39/13 20/20/13 
f 20/20/13 16/16/13 35/38/13 
f 36/39/13 32/40/13 24/24/13 
f 24/24/13 20/20/13 36/39/13 
f 1/1/14 4/4/14 37/3/14 
f 37/3/14 38/2/14 1/1/14 
f 38/2/15 37/3/15 39/6/15 
f 39/6/15 40/5/15 38/2/15 
f 41/7/16 40/5/16 39/6/16 
f 39/6/16 42/8/16 41/7/16 
f 4/4/14 10/10/14 43/9/14 
f 43/9/14 37/3/14 4/4/14 
f 37/3/15 43/9/15 44/11/15 
f 44/11/15 39/6/15 37/3/15 
f 42/8/16 39/6/16 44/11/16 
f 44/11/16 45/12/16 42/8/16 
f 10/10/14 14/14/14 46/13/14 
f 46/13/14 43/9/14 10/10/14 
f 43/9/15 46/13/15 47/15/15 
f 47/15/15 44/11/15 43/9/15 
f 45/12/16 44/11/16 47/15/16 
f 47/15/16 48/16/16 45/12/16 
f 14/14/17 18/18/17 49/17/17 
f 49/17/17 46/13/17 14/14/17 
f 46/13/18 49/17/18 50/19/18 
f 50/19/15 47/15/15 46/13/15 
f 48/16/16 47/15/16 50/19/16 
f 50/19/16 51/20/16 48/16/16 
f 18/18/14 22/22/14 52/21/14 
f 52/21/14 49/17/14 18/18/14 
f 49/17/15 52/21/15 53/23/15 
f 53/23/15 50/19/15 49/17/15 
f 51/20/16 50/19/16 53/23/16 
f 53/23/16 54/24/16 51/20/16 
f 55/25/19 40/25/19 41/27/19 
f 41/27/6 56/26/6 55/25/6 
f 40/25/6 55/25/6 57/28/6 
f 57/28/6 38/28/6 40/25/6 
f 38/28/6 57/28/6 28/29/6 
f 28/29/19 1/29/19 38/28/19 
f 22/30/7 30/30/7 58/31/7 
f 58/31/7 52/31/7 22/30/7 
f 52/31/20 58/31/20 59/32/20 
f 59/32/20 53/32/20 52/31/20 
f 59/32/7 60/34/7 54/33/7 
f 54/33/7 53/32/7 59/32/7 
s 1
f 55/25/21 59/32/21 58/31/22 
f 58/31/22 57/28/22 55/25/21 
s 4
f 57/28/23 58/31/23 30/30/23 
f 30/30/23 28/29/23 57/28/23 
s 1
f 56/26/24 60/34/24 59/32/21 
f 59/32/21 55/25/21 56/26/24 
s off
f 56/35/13 41/7/13 42/8/13 
f 42/8/13 61/36/13 56/35/13 
f 61/36/13 42/8/13 45/12/13 
f 45/12/13 62/37/13 61/36/13 
f 62/37/13 45/12/13 48/16/13 
f 48/16/13 63/38/13 62/37/13 
f 63/38/13 48/16/13 51/20/13 
f 51/20/13 64/39/13 63/38/13 
f 64/39/13 51/20/13 54/24/13 
f 54/24/13 60/40/13 64/39/13 
f 65/41/25 66/42/25 67/43/25 
f 67/43/25 68/44/25 65/41/25 
f 69/44/26 70/41/26 71/42/26 
f 71/42/26 72/43/26 69/44/26 
f 65/44/27 68/41/27 70/42/27 
f 70/42/27 69/43/27 65/44/27 
f 68/44/6 73/41/6 71/42/6 
f 71/42/6 70/43/6 68/44/6 
f 73/44/28 74/41/28 72/42/28 
f 72/42/28 71/43/28 73/44/28 
f 74/44/7 65/41/7 69/42/7 
f 69/42/7 72/43/7 74/44/7 
f 65/41/7 74/42/7 66/42/7 
f 74/42/29 73/43/29 67/43/29 
f 67/43/29 66/42/29 74/42/29 
f 73/43/6 68/44/6 67/43/6 
f 75/41/25 76/42/25 77/43/25 
f 77/43/25 78/44/25 75/41/25 
f 79/44/26 80/41/26 81/42/26 
f 81/42/26 82/43/26 79/44/26 
f 75/44/27 78/41/27 80/42/27 
f 80/42/27 79/43/27 75/44/27 
f 78/44/6 83/41/6 81/42/6 
f 81/42/6 80/43/6 78/44/6 
f 83/44/28 84/41/28 82/42/28 
f 82/42/28 81/43/28 83/44/28 
f 84/44/7 75/41/7 79/42/7 
f 79/42/7 82/43/7 84/44/7 
f 75/41/7 84/42/7 76/42/7 
f 84/42/29 83/43/29 77/43/29 
f 77/43/29 76/42/29 84/42/29 
f 83/43/6 78/44/6 77/43/6 
f 85/41/25 86/42/25 87/43/25 
f 87/43/25 88/44/25 85/41/25 
f 89/44/30 90/41/30 91/42/30 
f 91/42/30 92/43/30 89/44/30 
f 85/44/31 88/41/31 90/42/31 
f 90/42/31 89/43/31 85/44/31 
f 88/44/32 93/41/32 91/42/32 
f 91/42/7 90/43/7 88/44/7 
f 93/44/33 94/41/33 92/42/33 
f 92/42/33 91/43/33 93/44/33 
f 94/44/6 85/41/6 89/42/6 
f 89/42/34 92/43/34 94/44/34 
f 85/41/6 94/42/6 86/42/6 
f 94/42/35 93/43/35 87/43/35 
f 87/43/35 86/42/35 94/42/35 
f 93/43/8 88/44/8 87/43/8 
f 95/41/25 96/42/25 97/43/25 
f 97/43/25 98/44/25 95/41/25 
f 99/44/30 100/41/30 101/42/30 
f 101/42/30 102/43/30 99/44/30 
f 95/44/31 98/41/31 100/42/31 
f 100/42/31 99/43/31 95/44/31 
f 98/44/7 103/41/7 101/42/7 
f 101/42/7 100/43/7 98/44/7 
f 103/44/33 104/41/33 102/42/33 
f 102/42/33 101/43/33 103/44/33 
f 104/44/6 95/41/6 99/42/6 
f 99/42/6 102/43/6 104/44/6 
f 95/41/6 104/42/6 96/42/6 
f 104/42/35 103/43/35 97/43/35 
f 97/43/35 96/42/35 104/42/35 
f 103/43/7 98/44/7 97/43/7 
# 180 faces

