# 3ds Max Wavefront OBJ Exporter v0.97b - (c)2007 guruware
# File Created: 10.08.2016 19:21:11

mtllib SM_Highjump_RW.mtl

#
# object Jumps
#

v  109.7159 -0.0000 4.0320
v  117.7799 -0.0000 4.0320
v  117.7799 49.2488 4.0320
v  109.7159 49.2488 4.0320
v  109.7159 0.0000 -4.0320
v  109.7159 49.2488 -4.0320
v  117.7799 49.2488 -4.0320
v  117.7799 0.0000 -4.0320
v  116.8122 50.0710 3.0643
v  116.8122 50.0710 -3.0643
v  110.6836 50.0710 -3.0643
v  110.6836 50.0710 3.0643
v  59.9738 0.0000 4.0320
v  59.9738 0.0000 -4.0320
v  68.0378 0.0000 -4.0320
v  68.0378 0.0000 4.0320
v  68.0378 80.6400 -4.0320
v  68.0378 80.6400 4.0320
v  67.0701 81.4621 3.0643
v  67.0701 81.4621 -3.0643
v  60.9415 81.4621 -3.0643
v  60.9415 81.4621 3.0643
v  59.9738 80.6400 4.0320
v  59.9738 80.6400 -4.0320
v  64.6178 10.2058 2.8224
v  64.6178 4.5610 2.8224
v  114.2606 4.5610 2.8224
v  114.2606 10.2058 2.8224
v  64.6178 10.2058 -2.8224
v  114.2606 10.2058 -2.8224
v  114.2606 4.5610 -2.8224
v  64.6178 4.5610 -2.8224
v  113.1713 45.0596 1.6679
v  113.1713 45.0596 -1.1545
v  66.9318 77.4369 -1.1545
v  66.9318 77.4369 1.6679
v  110.0260 40.5678 1.6679
v  63.7866 72.9450 1.6679
v  63.7866 72.9450 -1.1545
v  110.0260 40.5678 -1.1545
v  113.1713 26.7378 1.6679
v  113.1713 26.7378 -1.1545
v  66.9318 59.1150 -1.1545
v  66.9318 59.1150 1.6679
v  110.0260 22.2459 1.6679
v  63.7866 54.6232 1.6679
v  63.7866 54.6232 -1.1545
v  110.0260 22.2459 -1.1545
v  113.1713 9.5528 1.6679
v  113.1713 9.5528 -1.1545
v  66.9318 41.9301 -1.1545
v  66.9318 41.9301 1.6679
v  110.0260 5.0610 1.6679
v  63.7866 37.4383 1.6679
v  63.7866 37.4383 -1.1545
v  110.0260 5.0610 -1.1545
v  61.4656 4.9251 29.2855
v  66.5460 4.9251 29.2855
v  66.5460 27.1224 2.8317
v  61.4656 27.1224 2.8317
v  61.4656 1.0333 26.0199
v  61.4656 23.2307 -0.4339
v  66.5460 23.2307 -0.4339
v  66.5460 1.0333 26.0199
v  66.5460 4.9251 -29.2855
v  61.4656 4.9251 -29.2855
v  61.4656 27.1224 -2.8318
v  66.5460 27.1224 -2.8318
v  66.5460 1.0333 -26.0200
v  66.5460 23.2307 0.4338
v  61.4656 23.2307 0.4338
v  61.4656 1.0333 -26.0200
v  67.0794 5.3966 -30.1166
v  60.9322 5.3966 -30.1166
v  60.9322 5.3966 29.7420
v  67.0794 5.3966 29.7420
v  67.0794 0.4789 -32.1568
v  67.0794 0.4789 32.1459
v  60.9322 0.4789 32.1459
v  60.9322 0.4789 -32.1568
v  58.8449 46.7527 2.6590
v  59.9738 46.7527 2.6590
v  59.9738 46.7527 -2.7110
v  58.8449 46.7527 -2.7110
v  58.8449 45.6238 2.6590
v  58.8449 45.6238 -2.7110
v  59.9738 45.6238 -2.7110
v  59.9738 45.6238 2.6590
v  58.8660 36.4580 2.9924
v  59.9945 36.4580 2.9994
v  59.9527 36.4580 -3.0444
v  58.8242 36.4580 -3.0514
v  58.8660 35.3290 2.9924
v  58.8242 35.3290 -3.0514
v  59.9527 35.3290 -3.0444
v  59.9945 35.3290 2.9994
v  58.8449 25.8773 3.3303
v  59.9738 25.8773 3.3302
v  59.9738 25.8773 -3.3822
v  58.8449 25.8773 -3.3822
v  58.8449 24.7484 3.3303
v  58.8449 24.7484 -3.3822
v  59.9738 24.7484 -3.3822
v  59.9738 24.7484 3.3302
v  58.8449 57.1507 2.6590
v  59.9738 57.1507 2.6590
v  59.9738 57.1507 -2.7110
v  58.8449 57.1507 -2.7110
v  58.8449 56.0217 2.6590
v  58.8449 56.0217 -2.7110
v  59.9738 56.0217 -2.7110
v  59.9738 56.0217 2.6590
v  65.1687 59.1150 2.4590
v  65.1687 61.0549 1.3390
v  -63.6312 61.0549 1.3390
v  -63.6312 59.1150 2.4590
v  65.1687 61.0549 -0.9010
v  -63.6312 61.0549 -0.9010
v  65.1687 59.1150 -2.0210
v  -63.6312 59.1150 -2.0210
v  65.1687 57.1751 -0.9010
v  -63.6312 57.1751 -0.9010
v  65.1687 57.1751 1.3390
v  -63.6312 57.1751 1.3390
v  -109.7159 -0.0000 -4.0320
v  -117.7799 -0.0000 -4.0320
v  -117.7799 49.2488 -4.0320
v  -109.7159 49.2488 -4.0320
v  -109.7159 -0.0000 4.0320
v  -109.7159 49.2488 4.0320
v  -117.7799 49.2488 4.0320
v  -117.7799 -0.0000 4.0320
v  -116.8122 50.0710 -3.0643
v  -116.8122 50.0710 3.0643
v  -110.6836 50.0710 3.0643
v  -110.6836 50.0710 -3.0643
v  -59.9738 0.0000 -4.0320
v  -59.9738 0.0000 4.0320
v  -68.0378 0.0000 4.0320
v  -68.0378 0.0000 -4.0320
v  -68.0378 80.6400 4.0320
v  -68.0378 80.6400 -4.0320
v  -67.0702 81.4621 -3.0643
v  -67.0702 81.4621 3.0643
v  -60.9415 81.4621 3.0643
v  -60.9415 81.4621 -3.0643
v  -59.9738 80.6400 -4.0320
v  -59.9738 80.6400 4.0320
v  -64.6178 10.2058 -2.8224
v  -64.6178 4.5610 -2.8224
v  -114.2606 4.5610 -2.8224
v  -114.2606 10.2058 -2.8224
v  -64.6178 10.2058 2.8224
v  -114.2606 10.2058 2.8224
v  -114.2606 4.5610 2.8224
v  -64.6178 4.5610 2.8224
v  -113.1713 45.0596 -1.6679
v  -113.1713 45.0596 1.1545
v  -66.9318 77.4369 1.1545
v  -66.9318 77.4369 -1.6679
v  -110.0261 40.5678 -1.6679
v  -63.7866 72.9450 -1.6679
v  -63.7866 72.9450 1.1545
v  -110.0261 40.5678 1.1545
v  -113.1713 26.7378 -1.6679
v  -113.1713 26.7378 1.1545
v  -66.9318 59.1150 1.1545
v  -66.9318 59.1150 -1.6679
v  -110.0261 22.2459 -1.6679
v  -63.7866 54.6232 -1.6679
v  -63.7866 54.6232 1.1545
v  -110.0261 22.2459 1.1545
v  -113.1713 9.5528 -1.6679
v  -113.1713 9.5528 1.1545
v  -66.9318 41.9301 1.1545
v  -66.9318 41.9301 -1.6679
v  -110.0261 5.0610 -1.6679
v  -63.7866 37.4383 -1.6679
v  -63.7866 37.4383 1.1545
v  -110.0261 5.0610 1.1545
v  -61.4657 4.9251 -29.2855
v  -66.5460 4.9251 -29.2855
v  -66.5460 27.1224 -2.8317
v  -61.4657 27.1224 -2.8317
v  -61.4657 1.0333 -26.0199
v  -61.4657 23.2307 0.4338
v  -66.5460 23.2307 0.4338
v  -66.5460 1.0333 -26.0199
v  -66.5460 4.9251 29.2855
v  -61.4657 4.9251 29.2855
v  -61.4657 27.1224 2.8317
v  -66.5460 27.1224 2.8317
v  -66.5460 1.0333 26.0199
v  -66.5460 23.2307 -0.4338
v  -61.4657 23.2307 -0.4338
v  -61.4657 1.0333 26.0199
v  -67.0794 5.3966 30.1166
v  -60.9322 5.3966 30.1166
v  -60.9322 5.3966 -29.7421
v  -67.0795 5.3966 -29.7420
v  -67.0794 0.4789 32.1568
v  -67.0795 0.4789 -32.1459
v  -60.9322 0.4789 -32.1459
v  -60.9322 0.4789 32.1568
v  -58.8449 46.7527 -2.6590
v  -59.9739 46.7527 -2.6590
v  -59.9739 46.7527 2.7109
v  -58.8449 46.7527 2.7110
v  -58.8449 45.6238 -2.6590
v  -58.8449 45.6238 2.7110
v  -59.9739 45.6238 2.7109
v  -59.9739 45.6238 -2.6590
v  -58.8660 36.4580 -2.9925
v  -59.9945 36.4580 -2.9995
v  -59.9528 36.4580 3.0444
v  -58.8242 36.4580 3.0514
v  -58.8660 35.3290 -2.9925
v  -58.8242 35.3290 3.0514
v  -59.9528 35.3290 3.0444
v  -59.9946 35.3290 -2.9995
v  -58.8449 25.8773 -3.3303
v  -59.9739 25.8773 -3.3303
v  -59.9739 25.8773 3.3822
v  -58.8449 25.8773 3.3822
v  -58.8449 24.7484 -3.3303
v  -58.8449 24.7484 3.3822
v  -59.9739 24.7484 3.3822
v  -59.9739 24.7484 -3.3303
v  -58.8449 57.1507 -2.6590
v  -59.9739 57.1507 -2.6590
v  -59.9739 57.1507 2.7109
v  -58.8449 57.1507 2.7110
v  -58.8449 56.0217 -2.6590
v  -58.8449 56.0217 2.7110
v  -59.9739 56.0217 2.7109
v  -59.9739 56.0217 -2.6590
# 236 vertices

vn 0.0000 -0.0000 1.0000
vn 0.0000 0.0000 -1.0000
vn 0.0000 -1.0000 -0.0000
vn 1.0000 0.0000 -0.0000
vn 0.0000 1.0000 0.0000
vn -1.0000 0.0000 -0.0000
vn 0.0000 0.7621 0.6475
vn 0.6475 0.7621 0.0000
vn 0.0000 0.7621 -0.6475
vn -0.6475 0.7621 0.0000
vn -0.0000 -0.0000 1.0000
vn 0.0000 -0.0000 -1.0000
vn -0.0000 1.0000 0.0000
vn 0.5736 0.8192 0.0000
vn -0.5736 -0.8192 -0.0000
vn 0.8192 -0.5736 -0.0000
vn -0.0000 0.0000 -1.0000
vn -0.8192 0.5736 0.0000
vn 0.0000 0.0000 1.0000
vn -0.0000 -0.0000 -1.0000
vn -0.0000 0.7660 0.6428
vn 0.0000 0.7660 0.6428
vn -0.0000 -0.7660 -0.6428
vn -0.0000 -0.6428 0.7660
vn 1.0000 -0.0000 0.0000
vn 0.0000 0.7660 -0.6428
vn -0.0000 0.7660 -0.6428
vn 0.0000 -0.7660 0.6428
vn 0.0000 -0.6428 -0.7660
vn -1.0000 -0.0000 0.0000
vn 0.0000 -1.0000 0.0000
vn 0.0000 0.3832 -0.9237
vn -1.0000 0.0000 0.0000
vn 0.0000 0.4392 0.8984
vn -0.0000 0.4392 0.8984
vn -0.0000 1.0000 -0.0000
vn -0.0000 -1.0000 -0.0000
vn 1.0000 0.0000 0.0000
vn -1.0000 -0.0000 -0.0000
vn 0.0000 1.0000 -0.0000
vn -0.0000 -1.0000 0.0000
vn -0.0062 0.0000 1.0000
vn -0.0062 -0.0000 1.0000
vn 1.0000 0.0000 -0.0069
vn 0.0062 0.0000 -1.0000
vn -1.0000 -0.0000 0.0069
vn -0.0000 0.8660 0.5000
vn 0.0000 0.8660 -0.5000
vn 0.0000 -0.8660 -0.5000
vn -0.0000 -0.8660 0.5000
vn -0.0000 0.7621 -0.6475
vn -0.6475 0.7621 -0.0000
vn 0.6475 0.7621 -0.0000
vn -0.5736 0.8192 0.0000
vn 0.5736 -0.8192 -0.0000
vn 0.5736 -0.8192 0.0000
vn -0.8192 -0.5736 -0.0000
vn 0.8192 0.5736 -0.0000
vn 0.8192 0.5736 0.0000
vn -0.5736 0.8192 -0.0000
vn -0.8192 -0.5736 0.0000
vn 0.0000 -0.7660 -0.6428
vn 0.0000 -0.6428 0.7660
vn 0.0000 0.3832 0.9237
vn 1.0000 -0.0000 -0.0000
vn -0.0000 0.4392 -0.8984
vn 0.0000 0.4392 -0.8984
vn -0.0000 0.0000 1.0000
vn 0.0062 -0.0000 -1.0000
vn -1.0000 0.0000 0.0069
vn 1.0000 -0.0000 -0.0069
# 71 vertex normals

vt 1.0000 0.0000 0.0000
vt 0.0000 0.0000 0.0000
vt 0.0000 1.0000 0.0000
vt 1.0000 1.0000 0.0000
vt 0.7500 0.0000 1.0000
vt 0.9167 0.0000 1.0000
vt 0.9167 1.0000 1.0000
vt 0.7500 1.0000 1.0000
vt 1.0833 0.0000 1.0000
vt 1.0833 1.0000 1.0000
vt 0.0833 0.0000 1.0000
vt 0.2500 0.0000 1.0000
vt 0.2500 1.0000 1.0000
vt 0.0833 1.0000 1.0000
vt 0.4167 0.0000 1.0000
vt 0.4167 1.0000 1.0000
vt 0.5833 0.0000 1.0000
vt 0.5833 1.0000 1.0000
vt 0.9330 0.2500 -0.2500
vt 0.5000 0.0000 -0.2500
vt 0.0670 0.2500 -0.2500
vt 0.0670 0.7500 -0.2500
vt 0.5000 1.0000 -0.2500
vt 0.9330 0.7500 -0.2500
vt 0.0670 0.7500 0.2500
vt 0.0670 0.2500 0.2500
vt 0.5000 0.0000 0.2500
vt 0.9330 0.2500 0.2500
vt 0.9330 0.7500 0.2500
vt 0.5000 1.0000 0.2500
# 30 texture coords

g Jumps
usemtl 01___Default
s 2
f 1/1/1 2/2/1 3/3/1 
f 3/3/1 4/4/1 1/1/1 
s 4
f 5/2/2 6/3/2 7/4/2 
f 7/4/2 8/1/2 5/2/2 
s 8
f 1/2/3 5/3/3 8/4/3 
f 8/4/3 2/1/3 1/2/3 
s 16
f 2/2/4 8/3/4 7/4/4 
f 7/4/4 3/1/4 2/2/4 
s 32
f 9/2/5 10/3/5 11/4/5 
f 11/4/5 12/1/5 9/2/5 
s 64
f 4/2/6 6/3/6 5/4/6 
f 5/4/6 1/1/6 4/2/6 
s 8
f 13/2/3 14/3/3 15/4/3 
f 15/4/3 16/1/3 13/2/3 
s 16
f 16/2/4 15/3/4 17/4/4 
f 17/4/4 18/1/4 16/2/4 
s 32
f 19/2/5 20/3/5 21/4/5 
f 21/4/5 22/1/5 19/2/5 
s 64
f 23/2/6 24/3/6 14/4/6 
f 14/4/6 13/1/6 23/2/6 
s off
f 4/1/7 3/2/7 9/2/7 
f 9/2/7 12/1/7 4/1/7 
f 3/2/8 7/3/8 10/3/8 
f 10/3/8 9/2/8 3/2/8 
f 7/3/9 6/4/9 11/4/9 
f 11/4/9 10/3/9 7/3/9 
f 6/4/10 4/1/10 12/1/10 
f 12/1/10 11/4/10 6/4/10 
f 23/1/7 18/2/7 19/2/7 
f 19/2/7 22/1/7 23/1/7 
f 18/2/8 17/3/8 20/3/8 
f 20/3/8 19/2/8 18/2/8 
f 17/3/9 24/4/9 21/4/9 
f 21/4/9 20/3/9 17/3/9 
f 24/4/10 23/1/10 22/1/10 
f 22/1/10 21/4/10 24/4/10 
s 2
f 25/1/11 26/2/11 27/3/11 
f 27/3/11 28/4/11 25/1/11 
s 4
f 29/2/12 30/3/2 31/4/2 
f 31/4/2 32/1/12 29/2/12 
s 8
f 25/2/6 29/3/6 32/4/6 
f 32/4/6 26/1/6 25/2/6 
s 16
f 26/2/3 32/3/3 31/4/3 
f 31/4/3 27/1/3 26/2/3 
s 64
f 28/2/13 30/3/13 29/4/13 
f 29/4/13 25/1/13 28/2/13 
s off
f 13/1/1 16/2/1 18/3/1 
f 18/3/1 23/4/1 13/1/1 
f 17/4/2 15/1/2 14/2/2 
f 14/2/2 24/3/2 17/4/2 
s 2
f 33/1/14 34/2/14 35/3/14 
f 35/3/14 36/4/14 33/1/14 
s 4
f 37/2/15 38/3/15 39/4/15 
f 39/4/15 40/1/15 37/2/15 
s 8
f 33/2/16 37/3/16 40/4/16 
f 40/4/16 34/1/16 33/2/16 
s 16
f 34/2/17 40/3/17 39/4/17 
f 39/4/17 35/1/17 34/2/17 
s 32
f 35/2/18 39/3/18 38/4/18 
f 38/4/18 36/1/18 35/2/18 
s 64
f 36/2/1 38/3/1 37/4/19 
f 37/4/19 33/1/19 36/2/1 
s 2
f 41/1/14 42/2/14 43/3/14 
f 43/3/14 44/4/14 41/1/14 
s 4
f 45/2/15 46/3/15 47/4/15 
f 47/4/15 48/1/15 45/2/15 
s 8
f 41/2/16 45/3/16 48/4/16 
f 48/4/16 42/1/16 41/2/16 
s 16
f 42/2/17 48/3/17 47/4/17 
f 47/4/17 43/1/17 42/2/17 
s 32
f 43/2/18 47/3/18 46/4/18 
f 46/4/18 44/1/18 43/2/18 
s 64
f 44/2/1 46/3/1 45/4/19 
f 45/4/19 41/1/19 44/2/1 
s 2
f 49/1/14 50/2/14 51/3/14 
f 51/3/14 52/4/14 49/1/14 
s 4
f 53/2/15 54/3/15 55/4/15 
f 55/4/15 56/1/15 53/2/15 
s 8
f 49/2/16 53/3/16 56/4/16 
f 56/4/16 50/1/16 49/2/16 
s 16
f 50/2/20 56/3/20 55/4/17 
f 55/4/17 51/1/17 50/2/20 
s 32
f 51/2/18 55/3/18 54/4/18 
f 54/4/18 52/1/18 51/2/18 
s 64
f 52/2/1 54/3/1 53/4/19 
f 53/4/19 49/1/19 52/2/1 
s 2
f 57/1/21 58/2/21 59/3/22 
f 59/3/22 60/4/22 57/1/21 
s 4
f 61/2/23 62/3/23 63/4/23 
f 63/4/23 64/1/23 61/2/23 
s 8
f 57/2/24 61/3/24 64/4/24 
f 64/4/24 58/1/24 57/2/24 
s 16
f 58/2/25 64/3/25 63/4/25 
f 63/4/25 59/1/25 58/2/25 
s 64
f 60/2/6 62/3/6 61/4/6 
f 61/4/6 57/1/6 60/2/6 
s 2
f 65/1/26 66/2/26 67/3/27 
f 67/3/27 68/4/27 65/1/26 
s 4
f 69/2/28 70/3/28 71/4/28 
f 71/4/28 72/1/28 69/2/28 
s 8
f 65/2/29 69/3/29 72/4/29 
f 72/4/29 66/1/29 65/2/29 
s 16
f 66/2/30 72/3/30 71/4/6 
f 71/4/6 67/1/6 66/2/30 
s 64
f 68/2/25 70/3/25 69/4/4 
f 69/4/4 65/1/4 68/2/25 
s 2
f 73/1/13 74/2/5 75/3/13 
f 75/3/13 76/4/13 73/1/13 
s 4
f 77/2/31 78/3/31 79/4/31 
f 79/4/31 80/1/31 77/2/31 
s 8
f 73/2/32 77/3/32 80/4/32 
f 80/4/32 74/1/32 73/2/32 
s 16
f 74/2/33 80/3/30 79/4/33 
f 79/4/33 75/1/33 74/2/33 
s 64
f 76/2/4 78/3/4 77/4/4 
f 77/4/4 73/1/4 76/2/4 
s 1
f 78/4/34 76/1/34 75/2/34 
f 75/2/34 79/3/35 78/4/34 
s 2
f 81/1/5 82/2/5 83/3/36 
f 83/3/36 84/4/36 81/1/5 
s 4
f 85/2/31 86/3/37 87/4/37 
f 87/4/37 88/1/31 85/2/31 
s 8
f 81/2/19 85/3/19 88/4/19 
f 88/4/19 82/1/1 81/2/19 
s 16
f 82/2/38 88/3/25 87/4/38 
f 87/4/38 83/1/38 82/2/38 
s 32
f 83/2/2 87/3/2 86/4/2 
f 86/4/2 84/1/2 83/2/2 
s 64
f 84/2/6 86/3/33 85/4/6 
f 85/4/6 81/1/39 84/2/6 
s 2
f 89/1/40 90/2/40 91/3/40 
f 91/3/40 92/4/40 89/1/40 
s 4
f 93/2/41 94/3/41 95/4/41 
f 95/4/41 96/1/41 93/2/41 
s 8
f 89/2/42 93/3/42 96/4/42 
f 96/4/42 90/1/43 89/2/42 
s 16
f 90/2/44 96/3/44 95/4/44 
f 95/4/44 91/1/44 90/2/44 
s 32
f 91/2/45 95/3/45 94/4/45 
f 94/4/45 92/1/45 91/2/45 
s 64
f 92/2/46 94/3/46 93/4/46 
f 93/4/46 89/1/46 92/2/46 
s 2
f 97/1/36 98/2/36 99/3/40 
f 99/3/40 100/4/40 97/1/36 
s 4
f 101/2/31 102/3/41 103/4/41 
f 103/4/41 104/1/31 101/2/31 
s 8
f 97/2/19 101/3/19 104/4/19 
f 104/4/19 98/1/1 97/2/19 
s 16
f 98/2/4 104/3/4 103/4/4 
f 103/4/4 99/1/4 98/2/4 
s 32
f 99/2/2 103/3/2 102/4/2 
f 102/4/2 100/1/2 99/2/2 
s 64
f 100/2/6 102/3/6 101/4/6 
f 101/4/6 97/1/6 100/2/6 
s 2
f 105/1/13 106/2/5 107/3/36 
f 107/3/36 108/4/36 105/1/13 
s 4
f 109/2/31 110/3/3 111/4/3 
f 111/4/3 112/1/31 109/2/31 
s 8
f 105/2/19 109/3/19 112/4/19 
f 112/4/19 106/1/1 105/2/19 
s 16
f 106/2/4 112/3/4 111/4/4 
f 111/4/4 107/1/4 106/2/4 
s 32
f 107/2/2 111/3/2 110/4/2 
f 110/4/2 108/1/2 107/2/2 
s 64
f 108/2/6 110/3/6 109/4/6 
f 109/4/6 105/1/6 108/2/6 
s 8
f 113/5/11 114/6/47 115/7/47 
f 115/7/47 116/8/11 113/5/11 
f 114/6/47 117/9/48 118/10/48 
f 118/10/48 115/7/47 114/6/47 
f 117/11/48 119/12/2 120/13/12 
f 120/13/12 118/14/48 117/11/48 
f 119/12/2 121/15/49 122/16/49 
f 122/16/49 120/13/12 119/12/2 
f 121/15/49 123/17/50 124/18/50 
f 124/18/50 122/16/49 121/15/49 
f 123/17/50 113/5/11 116/8/11 
f 116/8/11 124/18/50 123/17/50 
s 1
f 121/19/4 119/20/4 117/21/4 
f 117/21/4 114/22/4 113/23/4 
f 121/19/4 117/21/4 113/23/4 
f 123/24/4 121/19/4 113/23/4 
f 115/25/6 118/26/6 120/27/6 
f 120/27/6 122/28/6 124/29/6 
f 115/25/6 120/27/6 124/29/6 
f 116/30/6 115/25/6 124/29/6 
s 2
f 125/1/20 126/2/20 127/3/20 
f 127/3/20 128/4/20 125/1/20 
s 4
f 129/2/19 130/3/19 131/4/19 
f 131/4/19 132/1/19 129/2/19 
s 8
f 125/2/31 129/3/31 132/4/31 
f 132/4/31 126/1/31 125/2/31 
s 16
f 126/2/6 132/3/6 131/4/6 
f 131/4/6 127/1/6 126/2/6 
s 32
f 133/2/36 134/3/36 135/4/36 
f 135/4/36 136/1/36 133/2/36 
s 64
f 128/2/4 130/3/4 129/4/4 
f 129/4/4 125/1/4 128/2/4 
s 8
f 137/2/31 138/3/31 139/4/31 
f 139/4/31 140/1/31 137/2/31 
s 16
f 140/2/6 139/3/6 141/4/6 
f 141/4/6 142/1/6 140/2/6 
s 32
f 143/2/5 144/3/5 145/4/5 
f 145/4/5 146/1/5 143/2/5 
s 64
f 147/2/4 148/3/4 138/4/4 
f 138/4/4 137/1/4 147/2/4 
s off
f 128/1/51 127/2/51 133/2/51 
f 133/2/51 136/1/51 128/1/51 
f 127/2/52 131/3/52 134/3/52 
f 134/3/52 133/2/52 127/2/52 
f 131/3/7 130/4/7 135/4/7 
f 135/4/7 134/3/7 131/3/7 
f 130/4/53 128/1/53 136/1/53 
f 136/1/53 135/4/53 130/4/53 
f 147/1/51 142/2/51 143/2/51 
f 143/2/51 146/1/51 147/1/51 
f 142/2/10 141/3/10 144/3/10 
f 144/3/10 143/2/10 142/2/10 
f 141/3/7 148/4/7 145/4/7 
f 145/4/7 144/3/7 141/3/7 
f 148/4/8 147/1/8 146/1/8 
f 146/1/8 145/4/8 148/4/8 
s 2
f 149/1/20 150/2/20 151/3/20 
f 151/3/20 152/4/20 149/1/20 
s 4
f 153/2/1 154/3/1 155/4/1 
f 155/4/1 156/1/1 153/2/1 
s 8
f 149/2/4 153/3/4 156/4/4 
f 156/4/4 150/1/4 149/2/4 
s 16
f 150/2/31 156/3/31 155/4/31 
f 155/4/31 151/1/31 150/2/31 
s 64
f 152/2/36 154/3/36 153/4/36 
f 153/4/36 149/1/36 152/2/36 
s off
f 137/1/20 140/2/20 142/3/20 
f 142/3/20 147/4/20 137/1/20 
f 141/4/19 139/1/19 138/2/19 
f 138/2/19 148/3/19 141/4/19 
s 2
f 157/1/54 158/2/54 159/3/54 
f 159/3/54 160/4/54 157/1/54 
s 4
f 161/2/55 162/3/56 163/4/56 
f 163/4/56 164/1/55 161/2/55 
s 8
f 157/2/57 161/3/57 164/4/57 
f 164/4/57 158/1/57 157/2/57 
s 16
f 158/2/1 164/3/1 163/4/1 
f 163/4/1 159/1/1 158/2/1 
s 32
f 159/2/58 163/3/58 162/4/58 
f 162/4/58 160/1/59 159/2/58 
s 64
f 160/2/17 162/3/17 161/4/17 
f 161/4/17 157/1/17 160/2/17 
s 2
f 165/1/60 166/2/60 167/3/54 
f 167/3/54 168/4/54 165/1/60 
s 4
f 169/2/56 170/3/56 171/4/56 
f 171/4/56 172/1/56 169/2/56 
s 8
f 165/2/61 169/3/61 172/4/61 
f 172/4/61 166/1/61 165/2/61 
s 16
f 166/2/19 172/3/19 171/4/19 
f 171/4/19 167/1/19 166/2/19 
s 32
f 167/2/58 171/3/58 170/4/58 
f 170/4/58 168/1/59 167/2/58 
s 64
f 168/2/17 170/3/17 169/4/17 
f 169/4/17 165/1/17 168/2/17 
s 2
f 173/1/54 174/2/54 175/3/54 
f 175/3/54 176/4/54 173/1/54 
s 4
f 177/2/55 178/3/55 179/4/55 
f 179/4/55 180/1/55 177/2/55 
s 8
f 173/2/57 177/3/57 180/4/57 
f 180/4/57 174/1/57 173/2/57 
s 16
f 174/2/1 180/3/1 179/4/19 
f 179/4/19 175/1/19 174/2/1 
s 32
f 175/2/59 179/3/59 178/4/59 
f 178/4/59 176/1/59 175/2/59 
s 64
f 176/2/20 178/3/20 177/4/17 
f 177/4/17 173/1/17 176/2/20 
s 2
f 181/1/27 182/2/26 183/3/27 
f 183/3/27 184/4/27 181/1/27 
s 4
f 185/2/28 186/3/28 187/4/28 
f 187/4/28 188/1/28 185/2/28 
s 8
f 181/2/29 185/3/29 188/4/29 
f 188/4/29 182/1/29 181/2/29 
s 16
f 182/2/39 188/3/39 187/4/39 
f 187/4/39 183/1/39 182/2/39 
s 64
f 184/2/4 186/3/4 185/4/4 
f 185/4/4 181/1/4 184/2/4 
s 2
f 189/1/21 190/2/21 191/3/22 
f 191/3/22 192/4/22 189/1/21 
s 4
f 193/2/23 194/3/23 195/4/23 
f 195/4/23 196/1/62 193/2/23 
s 8
f 189/2/24 193/3/63 196/4/24 
f 196/4/24 190/1/24 189/2/24 
s 16
f 190/2/4 196/3/4 195/4/4 
f 195/4/4 191/1/4 190/2/4 
s 64
f 192/2/39 194/3/39 193/4/33 
f 193/4/33 189/1/33 192/2/39 
s 2
f 197/1/40 198/2/40 199/3/40 
f 199/3/40 200/4/40 197/1/40 
s 4
f 201/2/37 202/3/37 203/4/37 
f 203/4/37 204/1/3 201/2/37 
s 8
f 197/2/64 201/3/64 204/4/64 
f 204/4/64 198/1/64 197/2/64 
s 16
f 198/2/65 204/3/65 203/4/4 
f 203/4/4 199/1/4 198/2/65 
s 64
f 200/2/30 202/3/30 201/4/33 
f 201/4/33 197/1/33 200/2/30 
s 1
f 202/4/66 200/1/66 199/2/66 
f 199/2/66 203/3/67 202/4/66 
s 2
f 205/1/36 206/2/36 207/3/5 
f 207/3/5 208/4/5 205/1/36 
s 4
f 209/2/37 210/3/31 211/4/31 
f 211/4/31 212/1/37 209/2/37 
s 8
f 205/2/17 209/3/17 212/4/17 
f 212/4/17 206/1/20 205/2/17 
s 16
f 206/2/6 212/3/39 211/4/6 
f 211/4/6 207/1/6 206/2/6 
s 32
f 207/2/68 211/3/68 210/4/68 
f 210/4/68 208/1/68 207/2/68 
s 64
f 208/2/4 210/3/4 209/4/4 
f 209/4/4 205/1/4 208/2/4 
s 2
f 213/1/5 214/2/5 215/3/5 
f 215/3/5 216/4/5 213/1/5 
s 4
f 217/2/3 218/3/3 219/4/3 
f 219/4/3 220/1/3 217/2/3 
s 8
f 213/2/45 217/3/45 220/4/45 
f 220/4/45 214/1/69 213/2/45 
s 16
f 214/2/70 220/3/70 219/4/70 
f 219/4/70 215/1/70 214/2/70 
s 32
f 215/2/42 219/3/42 218/4/42 
f 218/4/42 216/1/43 215/2/42 
s 64
f 216/2/71 218/3/71 217/4/71 
f 217/4/71 213/1/71 216/2/71 
s 2
f 221/1/13 222/2/13 223/3/5 
f 223/3/5 224/4/5 221/1/13 
s 4
f 225/2/37 226/3/3 227/4/3 
f 227/4/3 228/1/37 225/2/37 
s 8
f 221/2/17 225/3/17 228/4/17 
f 228/4/17 222/1/20 221/2/17 
s 16
f 222/2/6 228/3/6 227/4/6 
f 227/4/6 223/1/6 222/2/6 
s 32
f 223/2/68 227/3/68 226/4/68 
f 226/4/68 224/1/68 223/2/68 
s 64
f 224/2/4 226/3/4 225/4/4 
f 225/4/4 221/1/4 224/2/4 
s 2
f 229/1/5 230/2/5 231/3/5 
f 231/3/5 232/4/5 229/1/5 
s 4
f 233/2/37 234/3/41 235/4/41 
f 235/4/41 236/1/37 233/2/37 
s 8
f 229/2/17 233/3/17 236/4/17 
f 236/4/17 230/1/20 229/2/17 
s 16
f 230/2/6 236/3/6 235/4/6 
f 235/4/6 231/1/6 230/2/6 
s 32
f 231/2/68 235/3/68 234/4/68 
f 234/4/68 232/1/68 231/2/68 
s 64
f 232/2/4 234/3/4 233/4/4 
f 233/4/4 229/1/4 232/2/4 
# 352 faces

