# 3ds Max Wavefront OBJ Exporter v0.97b - (c)2007 guruware
# File Created: 07.08.2016 16:26:37

mtllib Minihalfpipe.mtl

#
# object Cylinder001
#

v  0.0000 2.1119 -50.0000
v  20.0000 7.4708 -50.0000
v  20.0000 7.4708 -30.0000
v  0.0000 2.1119 -30.0000
v  34.6410 20.4913 -50.0000
v  34.6410 20.4913 -30.0000
v  41.5086 40.4913 -50.0000
v  41.5086 40.4913 -30.0000
v  20.0000 7.4708 -10.0000
v  0.0000 2.1119 -10.0000
v  34.6410 20.4913 -10.0000
v  41.5086 40.4913 -10.0000
v  20.0000 7.4708 10.0000
v  0.0000 2.1118 10.0000
v  34.6410 20.4913 10.0000
v  41.5086 40.4913 10.0000
v  20.0000 7.4708 30.0000
v  0.0000 2.1119 30.0000
v  34.6410 20.4913 30.0000
v  41.5086 40.4913 30.0000
v  20.0000 7.4708 50.0000
v  0.0000 2.1118 50.0000
v  34.6410 20.4913 50.0000
v  41.5086 40.4913 50.0000
v  29.2616 23.5972 -50.0000
v  39.4397 40.4913 -50.0000
v  16.8942 12.8503 -50.0000
v  0.0000 8.3235 -50.0000
v  16.8942 12.8503 50.0000
v  0.0000 8.3235 50.0000
v  29.2616 23.5971 50.0000
v  39.4397 40.4913 50.0000
v  39.4397 40.4913 -30.0000
v  39.4397 40.4913 -10.0000
v  39.4397 40.4913 10.0000
v  39.4397 40.4913 30.0000
v  19.5765 0.0000 34.6324
v  14.5290 -0.0000 34.6324
v  14.5290 0.0000 29.6324
v  19.5765 0.0000 29.6324
v  20.4044 9.4639 34.6324
v  20.4044 9.4639 29.6324
v  15.4235 9.8996 29.6324
v  15.4235 9.8996 34.6324
v  14.5955 0.4358 29.6324
v  14.5955 0.4358 34.6324
v  19.5765 0.0000 -26.8506
v  14.5290 0.0000 -26.8506
v  14.5290 0.0000 -31.8506
v  19.5765 0.0000 -31.8506
v  20.4044 9.4639 -26.8506
v  20.4044 9.4639 -31.8506
v  15.4235 9.8996 -31.8506
v  15.4235 9.8996 -26.8506
v  14.5955 0.4358 -31.8506
v  14.5955 0.4358 -26.8506
v  -20.0000 7.4708 -30.0000
v  -20.0000 7.4708 -50.0000
v  -34.6410 20.4913 -30.0000
v  -34.6410 20.4913 -50.0000
v  -41.5086 40.4913 -50.0000
v  -41.5086 40.4913 -30.0000
v  -20.0000 7.4708 -10.0000
v  -34.6410 20.4913 -10.0000
v  -41.5086 40.4913 -10.0000
v  -20.0000 7.4708 10.0000
v  -34.6410 20.4913 10.0000
v  -41.5086 40.4913 10.0000
v  -20.0000 7.4708 30.0000
v  -34.6410 20.4913 30.0000
v  -41.5086 40.4913 30.0000
v  -20.0000 7.4708 50.0000
v  -34.6410 20.4913 50.0000
v  -41.5086 40.4913 50.0000
v  -29.2616 23.5972 -50.0000
v  -39.4397 40.4913 -50.0000
v  -16.8942 12.8503 -50.0000
v  -16.8942 12.8503 50.0000
v  -29.2616 23.5971 50.0000
v  -39.4397 40.4913 50.0000
v  -39.4397 40.4913 -30.0000
v  -39.4397 40.4913 -10.0000
v  -39.4397 40.4913 10.0000
v  -39.4397 40.4913 30.0000
v  -19.5765 0.0000 34.6324
v  -19.5765 0.0000 29.6324
v  -14.5290 0.0000 29.6324
v  -14.5290 -0.0000 34.6324
v  -20.4044 9.4639 34.6324
v  -15.4235 9.8996 34.6324
v  -15.4235 9.8996 29.6324
v  -20.4044 9.4639 29.6324
v  -14.5955 0.4358 29.6324
v  -14.5955 0.4358 34.6324
v  -19.5765 0.0000 -26.8506
v  -19.5765 0.0000 -31.8506
v  -14.5290 0.0000 -31.8506
v  -14.5290 0.0000 -26.8506
v  -20.4044 9.4639 -26.8506
v  -15.4235 9.8996 -26.8506
v  -15.4235 9.8996 -31.8506
v  -20.4044 9.4639 -31.8506
v  -14.5955 0.4358 -31.8506
v  -14.5955 0.4358 -26.8506
# 104 vertices

vn 0.0000 -1.0000 -0.0000
vn 0.4745 -0.8803 -0.0000
vn 0.8324 -0.5541 -0.0000
vn 0.8139 0.5810 0.0000
vn -0.0000 -1.0000 -0.0000
vn 0.0000 0.0000 -1.0000
vn 0.0000 -0.0000 1.0000
vn -0.7656 0.6433 0.0000
vn -0.4694 0.8830 0.0000
vn 0.0000 1.0000 0.0000
vn -0.0000 1.0000 0.0000
vn -0.8566 0.5160 0.0000
vn 0.0000 -1.0000 0.0000
vn 0.0872 0.9962 0.0000
vn 0.9962 -0.0872 0.0000
vn 0.9962 -0.0872 -0.0000
vn -0.9962 0.0872 -0.0000
vn -0.9962 0.0872 0.0000
vn -0.9886 0.1509 -0.0000
vn -0.0000 -0.0000 -1.0000
vn 0.0000 0.0000 1.0000
vn -0.4745 -0.8803 -0.0000
vn -0.8324 -0.5541 -0.0000
vn -0.8139 0.5810 0.0000
vn 0.7656 0.6433 0.0000
vn 0.4694 0.8830 0.0000
vn 0.8566 0.5160 0.0000
vn -0.0000 -1.0000 0.0000
vn -0.0872 0.9962 0.0000
vn -0.9962 -0.0872 0.0000
vn -0.9962 -0.0872 -0.0000
vn 0.9962 0.0872 -0.0000
vn 0.9962 0.0872 0.0000
vn 0.9886 0.1509 -0.0000
vn 0.0000 -0.0000 -1.0000
vn -0.0000 0.0000 1.0000
# 36 vertex normals

vt 0.5000 0.0000 1.0000
vt 0.5833 0.0000 1.0000
vt 0.5833 0.2000 1.0000
vt 0.5000 0.2000 1.0000
vt 0.6667 0.0000 1.0000
vt 0.6667 0.2000 1.0000
vt 0.7083 0.0000 1.0000
vt 0.7083 0.2000 1.0000
vt 0.5833 0.4000 1.0000
vt 0.5000 0.4000 1.0000
vt 0.6667 0.4000 1.0000
vt 0.7083 0.4000 1.0000
vt 0.5833 0.6000 1.0000
vt 0.5000 0.6000 1.0000
vt 0.6667 0.6000 1.0000
vt 0.7083 0.6000 1.0000
vt 0.5833 0.8000 1.0000
vt 0.5000 0.8000 1.0000
vt 0.6667 0.8000 1.0000
vt 0.7083 0.8000 1.0000
vt 0.5833 1.0000 1.0000
vt 0.5000 1.0000 1.0000
vt 0.6667 1.0000 1.0000
vt 0.7083 1.0000 1.0000
vt 0.7500 0.9330 -0.2500
vt 0.5000 1.0000 -0.2500
vt 0.6250 0.9665 -0.2500
vt 0.9330 0.7500 -0.2500
vt 1.0000 0.5000 -0.2500
vt 1.0000 0.5000 0.2500
vt 0.9330 0.7500 0.2500
vt 0.7500 0.9330 0.2500
vt 0.6250 0.9665 0.2500
vt 0.5000 1.0000 0.2500
vt 0.7500 0.0000 1.0000
vt 0.7500 0.2000 1.0000
vt 0.7500 0.4000 1.0000
vt 0.7500 0.6000 1.0000
vt 0.7500 0.8000 1.0000
vt 0.7500 1.0000 1.0000
vt 1.0000 0.0000 0.0000
vt 1.0000 1.0000 0.0000
vt 0.0000 1.0000 0.0000
vt 0.0000 0.0000 0.0000
# 44 texture coords

g Cylinder001
usemtl wire_027177088
s 8
f 1/1/1 2/2/2 3/3/2 
f 3/3/2 4/4/1 1/1/1 
f 2/2/2 5/5/3 6/6/3 
f 6/6/3 3/3/2 2/2/2 
f 7/7/4 8/8/4 6/6/3 
f 6/6/3 5/5/3 7/7/4 
f 4/4/1 3/3/2 9/9/2 
f 9/9/2 10/10/1 4/4/1 
f 3/3/2 6/6/3 11/11/3 
f 11/11/3 9/9/2 3/3/2 
f 8/8/4 12/12/4 11/11/3 
f 11/11/3 6/6/3 8/8/4 
f 10/10/1 9/9/2 13/13/2 
f 13/13/2 14/14/5 10/10/1 
f 9/9/2 11/11/3 15/15/3 
f 15/15/3 13/13/2 9/9/2 
f 12/12/4 16/16/4 15/15/3 
f 15/15/3 11/11/3 12/12/4 
f 14/14/5 13/13/2 17/17/2 
f 17/17/2 18/18/1 14/14/5 
f 13/13/2 15/15/3 19/19/3 
f 19/19/3 17/17/2 13/13/2 
f 16/16/4 20/20/4 19/19/3 
f 19/19/3 15/15/3 16/16/4 
f 18/18/1 17/17/2 21/21/2 
f 21/21/2 22/22/1 18/18/1 
f 17/17/2 19/19/3 23/23/3 
f 23/23/3 21/21/2 17/17/2 
f 20/20/4 24/24/4 23/23/3 
f 23/23/3 19/19/3 20/20/4 
s off
f 25/25/6 26/26/6 7/27/6 
f 7/27/6 5/25/6 25/25/6 
f 5/25/6 2/28/6 27/28/6 
f 27/28/6 25/25/6 5/25/6 
f 2/28/6 1/29/6 28/29/6 
f 28/29/6 27/28/6 2/28/6 
f 22/30/7 21/31/7 29/31/7 
f 29/31/7 30/30/7 22/30/7 
f 21/31/7 23/32/7 31/32/7 
f 31/32/7 29/31/7 21/31/7 
f 31/32/7 23/32/7 24/33/7 
f 24/33/7 32/34/7 31/32/7 
s 1
f 25/25/8 27/28/9 29/31/9 
f 29/31/9 31/32/8 25/25/8 
f 27/28/9 28/29/10 30/30/11 
f 30/30/11 29/31/9 27/28/9 
f 26/26/12 25/25/8 31/32/8 
f 31/32/8 32/34/12 26/26/12 
s 8
f 26/35/10 33/36/11 8/8/4 
f 8/8/4 7/7/4 26/35/10 
f 33/36/11 34/37/11 12/12/4 
f 12/12/4 8/8/4 33/36/11 
f 34/37/11 35/38/10 16/16/4 
f 16/16/4 12/12/4 34/37/11 
f 35/38/10 36/39/10 20/20/4 
f 20/20/4 16/16/4 35/38/10 
f 36/39/10 32/40/10 24/24/4 
f 24/24/4 20/20/4 36/39/10 
s 2
f 37/41/13 38/42/1 39/43/13 
f 39/43/13 40/44/13 37/41/13 
s 4
f 41/44/14 42/41/14 43/42/14 
f 43/42/14 44/43/14 41/44/14 
s 8
f 37/44/15 40/41/15 42/42/15 
f 42/42/15 41/43/16 37/44/15 
s 16
f 40/44/6 45/41/6 43/42/6 
f 43/42/6 42/43/6 40/44/6 
s 32
f 45/44/17 46/41/17 44/42/17 
f 44/42/17 43/43/18 45/44/17 
s 64
f 46/44/7 37/41/7 41/42/7 
f 41/42/7 44/43/7 46/44/7 
s off
f 37/41/7 46/42/7 38/42/7 
f 46/42/19 45/43/19 39/43/19 
f 39/43/19 38/42/19 46/42/19 
f 45/43/6 40/44/6 39/43/6 
s 2
f 47/41/13 48/42/1 49/43/13 
f 49/43/13 50/44/13 47/41/13 
s 4
f 51/44/14 52/41/14 53/42/14 
f 53/42/14 54/43/14 51/44/14 
s 8
f 47/44/15 50/41/15 52/42/15 
f 52/42/15 51/43/16 47/44/15 
s 16
f 50/44/20 55/41/20 53/42/20 
f 53/42/20 52/43/20 50/44/20 
s 32
f 55/44/17 56/41/17 54/42/17 
f 54/42/17 53/43/18 55/44/17 
s 64
f 56/44/21 47/41/21 51/42/21 
f 51/42/21 54/43/21 56/44/21 
s off
f 47/41/7 56/42/7 48/42/7 
f 56/42/19 55/43/19 49/43/19 
f 49/43/19 48/42/19 56/42/19 
f 55/43/6 50/44/6 49/43/6 
s 8
f 1/1/1 4/4/1 57/3/22 
f 57/3/22 58/2/22 1/1/1 
f 58/2/22 57/3/22 59/6/23 
f 59/6/23 60/5/23 58/2/22 
f 61/7/24 60/5/23 59/6/23 
f 59/6/23 62/8/24 61/7/24 
f 4/4/1 10/10/1 63/9/22 
f 63/9/22 57/3/22 4/4/1 
f 57/3/22 63/9/22 64/11/23 
f 64/11/23 59/6/23 57/3/22 
f 62/8/24 59/6/23 64/11/23 
f 64/11/23 65/12/24 62/8/24 
f 10/10/1 14/14/5 66/13/22 
f 66/13/22 63/9/22 10/10/1 
f 63/9/22 66/13/22 67/15/23 
f 67/15/23 64/11/23 63/9/22 
f 65/12/24 64/11/23 67/15/23 
f 67/15/23 68/16/24 65/12/24 
f 14/14/5 18/18/1 69/17/22 
f 69/17/22 66/13/22 14/14/5 
f 66/13/22 69/17/22 70/19/23 
f 70/19/23 67/15/23 66/13/22 
f 68/16/24 67/15/23 70/19/23 
f 70/19/23 71/20/24 68/16/24 
f 18/18/1 22/22/1 72/21/22 
f 72/21/22 69/17/22 18/18/1 
f 69/17/22 72/21/22 73/23/23 
f 73/23/23 70/19/23 69/17/22 
f 71/20/24 70/19/23 73/23/23 
f 73/23/23 74/24/24 71/20/24 
s off
f 75/25/6 60/25/6 61/27/6 
f 61/27/6 76/26/6 75/25/6 
f 60/25/6 75/25/6 77/28/6 
f 77/28/6 58/28/6 60/25/6 
f 58/28/6 77/28/6 28/29/6 
f 28/29/6 1/29/6 58/28/6 
f 22/30/7 30/30/7 78/31/7 
f 78/31/7 72/31/7 22/30/7 
f 72/31/7 78/31/7 79/32/7 
f 79/32/7 73/32/7 72/31/7 
f 79/32/7 80/34/7 74/33/7 
f 74/33/7 73/32/7 79/32/7 
s 1
f 75/25/25 79/32/25 78/31/26 
f 78/31/26 77/28/26 75/25/25 
f 77/28/26 78/31/26 30/30/11 
f 30/30/11 28/29/10 77/28/26 
f 76/26/27 80/34/27 79/32/25 
f 79/32/25 75/25/25 76/26/27 
s 8
f 76/35/10 61/7/24 62/8/24 
f 62/8/24 81/36/10 76/35/10 
f 81/36/10 62/8/24 65/12/24 
f 65/12/24 82/37/10 81/36/10 
f 82/37/10 65/12/24 68/16/24 
f 68/16/24 83/38/11 82/37/10 
f 83/38/11 68/16/24 71/20/24 
f 71/20/24 84/39/11 83/38/11 
f 84/39/11 71/20/24 74/24/24 
f 74/24/24 80/40/10 84/39/11 
s 2
f 85/41/28 86/44/13 87/43/28 
f 87/43/28 88/42/5 85/41/28 
s 4
f 89/44/29 90/43/29 91/42/29 
f 91/42/29 92/41/29 89/44/29 
s 8
f 85/44/30 89/43/31 92/42/30 
f 92/42/30 86/41/30 85/44/30 
s 16
f 86/44/6 92/43/6 91/42/6 
f 91/42/6 93/41/6 86/44/6 
s 32
f 93/44/32 91/43/33 90/42/32 
f 90/42/32 94/41/32 93/44/32 
s 64
f 94/44/7 90/43/7 89/42/7 
f 89/42/7 85/41/7 94/44/7 
s off
f 85/41/7 88/42/7 94/42/7 
f 94/42/34 88/42/34 87/43/34 
f 87/43/34 93/43/34 94/42/34 
f 93/43/6 87/43/6 86/44/6 
s 2
f 95/41/28 96/44/13 97/43/28 
f 97/43/28 98/42/5 95/41/28 
s 4
f 99/44/29 100/43/29 101/42/29 
f 101/42/29 102/41/29 99/44/29 
s 8
f 95/44/30 99/43/31 102/42/30 
f 102/42/30 96/41/30 95/44/30 
s 16
f 96/44/35 102/43/35 101/42/35 
f 101/42/35 103/41/35 96/44/35 
s 32
f 103/44/32 101/43/33 100/42/32 
f 100/42/32 104/41/32 103/44/32 
s 64
f 104/44/36 100/43/36 99/42/36 
f 99/42/36 95/41/36 104/44/36 
s off
f 95/41/7 98/42/7 104/42/7 
f 104/42/34 98/42/34 97/43/34 
f 97/43/34 103/43/34 104/42/34 
f 103/43/6 97/43/6 96/44/6 
# 180 faces

